<svg width="29" height="31" viewBox="0 0 29 31" fill="none" xmlns="http://www.w3.org/2000/svg">
<path d="M4.43324 11.2756V0.991477H7.29545V11.2756H4.43324ZM0.71875 7.56818V4.70597H11.0028V7.56818H0.71875Z" fill="white"/>
<path d="M27 14C25.89 13.65 24.67 13.5 23.5 13.5C21.55 13.5 19.45 13.9 18 15C16.55 13.9 14.45 13.5 12.5 13.5C10.55 13.5 8.45 13.9 7 15V29.65C7 29.9 7.25 30.15 7.5 30.15C7.6 30.15 7.65 30.1 7.75 30.1C9.1 29.45 11.05 29 12.5 29C14.45 29 16.55 29.4 18 30.5C19.35 29.65 21.8 29 23.5 29C25.15 29 26.85 29.3 28.25 30.05C28.35 30.1 28.4 30.1 28.5 30.1C28.75 30.1 29 29.85 29 29.6V15C28.4 14.55 27.75 14.25 27 14ZM27 27.5C25.9 27.15 24.7 27 23.5 27C21.8 27 19.35 27.65 18 28.5V17C19.35 16.15 21.8 15.5 23.5 15.5C24.7 15.5 25.9 15.65 27 16V27.5Z" fill="white"/>
<path d="M23.5 19.5C24.38 19.5 25.23 19.59 26 19.76V18.24C25.21 18.09 24.36 18 23.5 18C21.8 18 20.26 18.29 19 18.83V20.49C20.13 19.85 21.7 19.5 23.5 19.5ZM19 21.49V23.15C20.13 22.51 21.7 22.16 23.5 22.16C24.38 22.16 25.23 22.25 26 22.42V20.9C25.21 20.75 24.36 20.66 23.5 20.66C21.8 20.66 20.26 20.96 19 21.49ZM23.5 23.33C21.8 23.33 20.26 23.62 19 24.16V25.82C20.13 25.18 21.7 24.83 23.5 24.83C24.38 24.83 25.23 24.92 26 25.09V23.57C25.21 23.41 24.36 23.33 23.5 23.33Z" fill="white"/>
</svg>
