<svg width="16" height="17" viewBox="0 0 16 17" fill="none" xmlns="http://www.w3.org/2000/svg">
<path d="M6.0625 3.35156V3.54688H9.1875V3.35156C9.1875 2.93716 9.02288 2.53973 8.72985 2.24671C8.43683 1.95368 8.0394 1.78906 7.625 1.78906C7.2106 1.78906 6.81317 1.95368 6.52015 2.24671C6.22712 2.53973 6.0625 2.93716 6.0625 3.35156ZM5.08594 3.54688V3.35156C5.08594 2.67816 5.35345 2.03234 5.82961 1.55617C6.30578 1.08001 6.9516 0.8125 7.625 0.8125C8.2984 0.8125 8.94422 1.08001 9.42039 1.55617C9.89655 2.03234 10.1641 2.67816 10.1641 3.35156V3.54688H14.5586C14.6881 3.54688 14.8123 3.59832 14.9039 3.68989C14.9954 3.78146 15.0469 3.90566 15.0469 4.03516C15.0469 4.16466 14.9954 4.28885 14.9039 4.38042C14.8123 4.47199 14.6881 4.52344 14.5586 4.52344H13.4191L12.6379 13.8422C12.5785 14.5498 12.2555 15.2094 11.7327 15.6901C11.21 16.1708 10.5258 16.4375 9.81563 16.4375H5.43438C4.72429 16.4374 4.04015 16.1706 3.5175 15.6899C2.99486 15.2093 2.67185 14.5498 2.6125 13.8422L1.83125 4.52344H0.691406C0.561906 4.52344 0.43771 4.47199 0.346139 4.38042C0.254569 4.28885 0.203125 4.16466 0.203125 4.03516C0.203125 3.90566 0.254569 3.78146 0.346139 3.68989C0.43771 3.59832 0.561906 3.54688 0.691406 3.54688H5.08594ZM3.58555 13.7605C3.62443 14.2241 3.83605 14.6562 4.17848 14.9712C4.52091 15.2861 4.96915 15.4609 5.43438 15.4609H9.81563C10.2809 15.461 10.7293 15.2862 11.0718 14.9713C11.4143 14.6563 11.626 14.2242 11.6648 13.7605L12.4391 4.52344H2.81094L3.58555 13.7605ZM6.64844 7.16016C6.64844 7.09603 6.63581 7.03254 6.61127 6.9733C6.58673 6.91406 6.55077 6.86023 6.50542 6.81489C6.46008 6.76955 6.40625 6.73358 6.34701 6.70904C6.28777 6.6845 6.22428 6.67187 6.16016 6.67187C6.09603 6.67187 6.03254 6.6845 5.9733 6.70904C5.91406 6.73358 5.86023 6.76955 5.81489 6.81489C5.76955 6.86023 5.73358 6.91406 5.70904 6.9733C5.6845 7.03254 5.67188 7.09603 5.67188 7.16016V12.8242C5.67188 12.8883 5.6845 12.9518 5.70904 13.0111C5.73358 13.0703 5.76955 13.1241 5.81489 13.1695C5.86023 13.2148 5.91406 13.2508 5.9733 13.2753C6.03254 13.2999 6.09603 13.3125 6.16016 13.3125C6.22428 13.3125 6.28777 13.2999 6.34701 13.2753C6.40625 13.2508 6.46008 13.2148 6.50542 13.1695C6.55077 13.1241 6.58673 13.0703 6.61127 13.0111C6.63581 12.9518 6.64844 12.8883 6.64844 12.8242V7.16016ZM9.08984 6.67187C9.35938 6.67187 9.57812 6.89062 9.57812 7.16016V12.8242C9.57812 12.9537 9.52668 13.0779 9.43511 13.1695C9.34354 13.2611 9.21934 13.3125 9.08984 13.3125C8.96034 13.3125 8.83615 13.2611 8.74458 13.1695C8.65301 13.0779 8.60156 12.9537 8.60156 12.8242V7.16016C8.60156 6.89062 8.82031 6.67187 9.08984 6.67187Z" fill="white"/>
</svg>
