<svg width="15" height="15" viewBox="0 0 15 15" fill="none" xmlns="http://www.w3.org/2000/svg">
<path d="M7.25 1.50006C8.06037 1.49913 8.86425 1.64446 9.623 1.92906L8.73575 2.82306C7.54152 2.49626 6.27284 2.5726 5.12642 3.04026C3.98 3.50792 3.01991 4.34076 2.39502 5.40964C1.77014 6.47852 1.51537 7.7237 1.67023 8.95212C1.82508 10.1805 2.38091 11.3235 3.25153 12.2039C4.12214 13.0842 5.25889 13.6527 6.4855 13.8212C7.71212 13.9897 8.96006 13.7488 10.0358 13.1359C11.1116 12.5229 11.955 11.5721 12.4354 10.431C12.9158 9.28986 13.0063 8.02209 12.6928 6.82431L13.5883 5.92206C13.8614 6.66779 14.0008 7.45588 14 8.25006C14 9.58508 13.6041 10.8901 12.8624 12.0002C12.1207 13.1102 11.0665 13.9754 9.83312 14.4862C8.59972 14.9971 7.24252 15.1308 5.93314 14.8704C4.62377 14.6099 3.42104 13.967 2.47703 13.023C1.53303 12.079 0.890153 10.8763 0.629702 9.56692C0.369252 8.25754 0.502925 6.90034 1.01382 5.66694C1.52471 4.43354 2.38987 3.37934 3.4999 2.63764C4.60994 1.89594 5.91498 1.50006 7.25 1.50006ZM14.045 1.25406L14.1545 1.35606C14.5422 1.74365 14.7605 2.26909 14.7617 2.81732C14.7628 3.36554 14.5466 3.89187 14.1605 4.28106L9.4325 9.04656C9.29688 9.18304 9.12851 9.28246 8.9435 9.33531L5.7845 10.2421C5.72014 10.2605 5.65202 10.2613 5.58722 10.2445C5.52242 10.2277 5.4633 10.1938 5.416 10.1465C5.3687 10.0991 5.33494 10.0399 5.31824 9.97509C5.30153 9.91026 5.30249 9.84214 5.321 9.77781L6.2285 6.61281C6.28079 6.4311 6.37804 6.26549 6.51125 6.13131L11.243 1.36131C11.6097 0.991935 12.1028 0.77544 12.6229 0.755533C13.1429 0.735627 13.6512 0.913792 14.045 1.25406ZM12.0418 2.15406L7.30925 6.92406L6.77525 8.78706L8.63375 8.25456L13.3618 3.48831C13.5256 3.32306 13.6229 3.10328 13.6351 2.87089C13.6472 2.6385 13.5734 2.40977 13.4278 2.22831L13.3565 2.14806C13.1814 1.97449 12.9446 1.87754 12.698 1.87852C12.4515 1.87951 12.2154 1.97834 12.0418 2.15331V2.15406Z" fill="white"/>
</svg>
