<svg width="103" height="59" viewBox="0 0 103 59" fill="none" xmlns="http://www.w3.org/2000/svg">
<path d="M0.779775 43V41.9915L2.6782 41.2796C3.23191 41.0818 3.62742 40.7852 3.86472 40.3897C4.14157 39.9546 4.28 39.4602 4.28 38.9065V6.92988C4.28 6.09932 4.14157 5.54562 3.86472 5.26876C3.58787 4.99191 3.19236 4.79416 2.6782 4.6755L0.779775 4.2009V3.13303C3.03416 2.81663 4.95236 2.52 6.53438 2.24314C8.11641 1.96629 9.75775 1.51146 11.4584 0.878649L12.0517 1.35326C11.7748 1.78831 11.5573 2.46067 11.3991 3.37033C11.2805 4.28 11.2211 5.26876 11.2211 6.33663V39.3218C11.2211 39.8755 11.3991 40.3106 11.7551 40.627C12.1506 40.9434 12.5065 41.1609 12.8229 41.2796L14.7213 41.9915V43H0.779775ZM29.5899 43.4746C26.94 43.4746 24.6065 42.8813 22.5894 41.6948C20.5724 40.5083 19.0101 38.9065 17.9027 36.8894C16.7953 34.8724 16.2416 32.5982 16.2416 30.067C16.2416 27.338 16.7953 24.9452 17.9027 22.8885C19.0101 20.7924 20.5724 19.1708 22.5894 18.0238C24.6065 16.8373 26.94 16.244 29.5899 16.244C32.2793 16.244 34.6326 16.8373 36.6497 18.0238C38.6667 19.1708 40.229 20.7528 41.3364 22.7699C42.4438 24.787 42.9975 27.0611 42.9975 29.5924C42.9975 32.2818 42.4438 34.6746 41.3364 36.7708C40.229 38.867 38.6667 40.5083 36.6497 41.6948C34.6326 42.8813 32.2793 43.4746 29.5899 43.4746ZM29.6492 41.5762C31.5476 41.5762 32.9715 40.6665 33.9207 38.8472C34.9094 36.9883 35.4038 34.1209 35.4038 30.2449C35.4038 26.2503 34.9094 23.2445 33.9207 21.2274C32.9715 19.1708 31.5081 18.1425 29.5306 18.1425C27.6717 18.1425 26.2479 19.0521 25.2591 20.8715C24.3099 22.6908 23.8353 25.5384 23.8353 29.4144C23.8353 33.409 24.3099 36.4346 25.2591 38.4912C26.2479 40.5479 27.7112 41.5762 29.6492 41.5762ZM58.5395 58.4247C56.4038 58.4247 54.3472 58.1874 52.3696 57.7128C50.3921 57.2382 48.7705 56.5065 47.5049 55.5178C46.2788 54.529 45.6658 53.2436 45.6658 51.6616C45.6658 50.3564 46.1404 49.2292 47.0896 48.28C48.0784 47.3308 49.3045 46.5991 50.7678 46.0849C52.2707 45.5708 53.7737 45.3137 55.2766 45.3137L57.2937 45.6697C55.3952 45.9465 54.0505 46.4804 53.2595 47.2715C52.5081 48.102 52.1323 49.071 52.1323 50.1784C52.1323 51.4836 52.8442 52.6899 54.2681 53.7973C55.7314 54.9047 57.9265 55.4584 60.8532 55.4584C63.6613 55.4584 65.9948 55.0036 67.8537 54.0939C69.7521 53.1843 70.7013 51.8791 70.7013 50.1784C70.7013 48.6755 70.0092 47.5088 68.6249 46.6782C67.2406 45.8476 65.5004 45.4324 63.4042 45.4324C62.2968 45.4324 61.1696 45.4719 60.0227 45.551C58.8757 45.6301 57.7287 45.6697 56.5818 45.6697C53.8132 45.6697 51.5193 45.1951 49.7 44.2458C47.8806 43.2966 46.971 41.9124 46.971 40.093C46.971 39.9744 46.9907 39.8755 47.0303 39.7964C47.1094 39.6778 47.2281 39.5591 47.3863 39.4404C48.4937 38.6494 49.4627 37.7991 50.2932 36.8894C51.1633 35.9798 51.9346 35.0701 52.6069 34.1604V33.8638C50.9458 32.9542 49.7 31.7479 48.8694 30.2449C48.0784 28.7025 47.6829 27.2193 47.6829 25.7955C47.6829 22.9874 48.6716 20.6935 50.6492 18.9137C52.6267 17.1339 55.237 16.244 58.4802 16.244C59.6272 16.244 60.6752 16.3825 61.6245 16.6593C62.6132 16.8966 63.5427 17.1735 64.4128 17.4899C65.1642 17.7272 65.8761 17.9447 66.5485 18.1425C67.2604 18.3402 67.9525 18.4391 68.6249 18.4391C69.7719 18.4391 70.3454 18.0831 70.3454 17.3712C70.3454 17.0944 70.286 16.7978 70.1674 16.4813C70.0487 16.1254 69.8707 15.7694 69.6334 15.4135C69.4357 15.0971 69.2577 14.7807 69.0995 14.4643C68.9413 14.1479 68.8622 13.7919 68.8622 13.3964C68.8622 12.5263 69.1193 11.8935 69.6334 11.498C70.1476 11.1025 70.7409 10.9047 71.4132 10.9047C72.3229 10.9047 73.0348 11.2607 73.549 11.9726C74.1027 12.6845 74.3795 13.5546 74.3795 14.5829C74.3795 16.8373 73.9642 18.4391 73.1337 19.3883C72.3031 20.3375 71.2748 20.8121 70.0487 20.8121C69.2577 20.8121 68.4469 20.6342 67.6164 20.2782V20.6342C68.1701 21.6229 68.5656 22.5128 68.8029 23.3038C69.0402 24.0948 69.1588 25.0243 69.1588 26.0921C69.1588 27.7533 68.7436 29.276 67.913 30.6602C67.0824 32.0445 65.8959 33.1519 64.3534 33.9825C62.811 34.813 60.9521 35.2283 58.7768 35.2283C56.9575 35.2283 55.5139 35.4261 54.446 35.8216C53.4177 36.2171 52.9036 36.7312 52.9036 37.364C52.9036 37.9969 53.22 38.4715 53.8528 38.7879C54.4856 39.1043 55.2964 39.2625 56.2851 39.2625C57.1552 39.2625 58.3418 39.2229 59.8447 39.1438C61.3476 39.0647 62.7121 39.0252 63.9382 39.0252C65.8366 39.0252 67.6559 39.2822 69.3961 39.7964C71.1364 40.3106 72.5602 41.1807 73.6676 42.4067C74.775 43.5933 75.3287 45.2346 75.3287 47.3308C75.3287 49.8225 74.5773 51.8791 73.0743 53.5007C71.5714 55.1618 69.5543 56.3879 67.0231 57.1789C64.4919 58.0094 61.664 58.4247 58.5395 58.4247ZM58.7175 32.9146C59.8645 32.9146 60.7543 32.3609 61.3872 31.2535C62.02 30.1065 62.3364 28.3267 62.3364 25.9142C62.3364 23.462 62.0002 21.6031 61.3278 20.3375C60.695 19.0719 59.7458 18.4391 58.4802 18.4391C57.3332 18.4391 56.4433 18.9928 55.8105 20.1002C55.1777 21.2076 54.8613 22.9281 54.8613 25.2616C54.8613 27.7928 55.1777 29.711 55.8105 31.0162C56.4829 32.2818 57.4519 32.9146 58.7175 32.9146ZM88.8578 43.4746C86.2079 43.4746 83.8744 42.8813 81.8573 41.6948C79.8403 40.5083 78.278 38.9065 77.1706 36.8894C76.0632 34.8724 75.5095 32.5982 75.5095 30.067C75.5095 27.338 76.0632 24.9452 77.1706 22.8885C78.278 20.7924 79.8403 19.1708 81.8573 18.0238C83.8744 16.8373 86.2079 16.244 88.8578 16.244C91.5472 16.244 93.9005 16.8373 95.9176 18.0238C97.9347 19.1708 99.4969 20.7528 100.604 22.7699C101.712 24.787 102.265 27.0611 102.265 29.5924C102.265 32.2818 101.712 34.6746 100.604 36.7708C99.4969 38.867 97.9347 40.5083 95.9176 41.6948C93.9005 42.8813 91.5472 43.4746 88.8578 43.4746ZM88.9171 41.5762C90.8156 41.5762 92.2394 40.6665 93.1886 38.8472C94.1773 36.9883 94.6717 34.1209 94.6717 30.2449C94.6717 26.2503 94.1773 23.2445 93.1886 21.2274C92.2394 19.1708 90.776 18.1425 88.7985 18.1425C86.9396 18.1425 85.5158 19.0521 84.527 20.8715C83.5778 22.6908 83.1032 25.5384 83.1032 29.4144C83.1032 33.409 83.5778 36.4346 84.527 38.4912C85.5158 40.5479 86.9791 41.5762 88.9171 41.5762Z" fill="black"/>
</svg>
