<svg width="30" height="30" viewBox="0 0 30 30" fill="none" xmlns="http://www.w3.org/2000/svg">
<g clip-path="url(#clip0_28_114)">
<path fill-rule="evenodd" clip-rule="evenodd" d="M15 27.1875C17.1396 27.1906 19.2419 26.6279 21.0938 25.5562V21.5625C21.0938 20.4436 20.6493 19.3706 19.8581 18.5794C19.0669 17.7882 17.9939 17.3438 16.875 17.3438H13.125C12.0061 17.3438 10.9331 17.7882 10.1419 18.5794C9.35072 19.3706 8.90625 20.4436 8.90625 21.5625V25.5562C10.7581 26.6279 12.8604 27.1906 15 27.1875ZM23.9062 21.5625V23.3194C25.5276 21.5837 26.6064 19.4121 27.0101 17.0716C27.4139 14.731 27.1249 12.3235 26.1787 10.1449C25.2326 7.96638 23.6705 6.11177 21.6845 4.80908C19.6985 3.50639 17.3751 2.81239 15 2.81239C12.6249 2.81239 10.3015 3.50639 8.31549 4.80908C6.32949 6.11177 4.7674 7.96638 3.82125 10.1449C2.8751 12.3235 2.58613 14.731 2.98986 17.0716C3.39359 19.4121 4.47243 21.5837 6.09375 23.3194V21.5625C6.09373 20.1129 6.54153 18.6987 7.37588 17.5133C8.21023 16.3279 9.39041 15.4291 10.755 14.94C10.047 14.1256 9.58815 13.1248 9.43325 12.0568C9.27835 10.9889 9.43392 9.89889 9.88139 8.91691C10.3289 7.93493 11.0494 7.10239 11.9569 6.5186C12.8645 5.9348 13.9209 5.62439 15 5.62439C16.0791 5.62439 17.1355 5.9348 18.0431 6.5186C18.9506 7.10239 19.6711 7.93493 20.1186 8.91691C20.5661 9.89889 20.7216 10.9889 20.5667 12.0568C20.4118 13.1248 19.953 14.1256 19.245 14.94C20.6096 15.4291 21.7898 16.3279 22.6241 17.5133C23.4585 18.6987 23.9063 20.1129 23.9062 21.5625ZM15 30C18.9782 30 22.7936 28.4196 25.6066 25.6066C28.4196 22.7936 30 18.9782 30 15C30 11.0218 28.4196 7.20644 25.6066 4.3934C22.7936 1.58035 18.9782 0 15 0C11.0218 0 7.20644 1.58035 4.3934 4.3934C1.58035 7.20644 0 11.0218 0 15C0 18.9782 1.58035 22.7936 4.3934 25.6066C7.20644 28.4196 11.0218 30 15 30ZM17.8125 11.25C17.8125 11.9959 17.5162 12.7113 16.9887 13.2387C16.4613 13.7662 15.7459 14.0625 15 14.0625C14.2541 14.0625 13.5387 13.7662 13.0113 13.2387C12.4838 12.7113 12.1875 11.9959 12.1875 11.25C12.1875 10.5041 12.4838 9.78871 13.0113 9.26126C13.5387 8.73382 14.2541 8.4375 15 8.4375C15.7459 8.4375 16.4613 8.73382 16.9887 9.26126C17.5162 9.78871 17.8125 10.5041 17.8125 11.25Z" fill="white"/>
</g>
<defs>
<clipPath id="clip0_28_114">
<rect width="30" height="30" fill="white"/>
</clipPath>
</defs>
</svg>
