<svg width="42" height="46" viewBox="0 0 42 46" fill="none" xmlns="http://www.w3.org/2000/svg">
<path d="M40.8547 29.1453L36.625 24.9156V19.3125C36.6202 15.4404 35.1797 11.7076 32.5822 8.83591C29.9848 5.96424 26.4147 4.15771 22.5625 3.76562V0.5625H19.4375V3.76562C15.5853 4.15771 12.0153 5.96424 9.41776 8.83591C6.82028 11.7076 5.37985 15.4404 5.375 19.3125V24.9156L1.14531 29.1453C0.852267 29.4383 0.687588 29.8356 0.6875 30.25V34.9375C0.6875 35.3519 0.85212 35.7493 1.14515 36.0424C1.43817 36.3354 1.8356 36.5 2.25 36.5H13.1875V37.7141C13.1535 39.6963 13.8522 41.6214 15.1497 43.1204C16.4471 44.6194 18.2521 45.5869 20.2188 45.8375C21.305 45.9452 22.4017 45.8244 23.4384 45.4828C24.4751 45.1412 25.4289 44.5864 26.2383 43.8541C27.0478 43.1218 27.695 42.2282 28.1383 41.2307C28.5816 40.2332 28.8113 39.154 28.8125 38.0625V36.5H39.75C40.1644 36.5 40.5618 36.3354 40.8549 36.0424C41.1479 35.7493 41.3125 35.3519 41.3125 34.9375V30.25C41.3124 29.8356 41.1477 29.4383 40.8547 29.1453ZM25.6875 38.0625C25.6875 39.3057 25.1936 40.498 24.3146 41.3771C23.4355 42.2561 22.2432 42.75 21 42.75C19.7568 42.75 18.5645 42.2561 17.6854 41.3771C16.8064 40.498 16.3125 39.3057 16.3125 38.0625V36.5H25.6875V38.0625ZM38.1875 33.375H3.8125V30.8969L8.04219 26.6672C8.33523 26.3742 8.49991 25.9769 8.5 25.5625V19.3125C8.5 15.9973 9.81696 12.8179 12.1612 10.4737C14.5054 8.12946 17.6848 6.8125 21 6.8125C24.3152 6.8125 27.4946 8.12946 29.8388 10.4737C32.183 12.8179 33.5 15.9973 33.5 19.3125V25.5625C33.5001 25.9769 33.6648 26.3742 33.9578 26.6672L38.1875 30.8969V33.375Z" fill="#0F1B32"/>
</svg>
