<svg width="34" height="38" viewBox="0 0 34 38" fill="none" xmlns="http://www.w3.org/2000/svg">
<path d="M6.20625 17.7062L5.3875 15.9281L3.38438 8.14058L2.875 6.92808L3.60938 5.12183C3.60938 5.12183 4.65 5.26871 5.44375 6.16558C6.40938 7.25933 7.98438 10.5312 7.98438 10.5312L7.65313 7.94996L9.45 3.29058C9.45 3.29058 10.2375 3.20621 10.4469 3.42183C10.8187 3.80308 11.4531 6.47808 11.6781 7.32496C11.9031 8.17183 12.2156 9.32808 12.6094 9.83433C13.0031 10.3406 13.4844 10.4562 13.4844 10.4562L14.8937 5.01246L15.2313 0.0749566C15.2313 0.0749566 15.725 0.0718316 16.4156 0.215582C16.9375 0.324957 17.2875 0.503082 17.4562 0.712457C17.625 0.921832 17.6312 4.24996 17.6312 4.24996C17.6312 4.24996 20.6094 1.71246 20.7063 1.74058C20.9125 1.79683 21.5531 1.93746 21.8906 2.30621C22.2281 2.67183 21.9469 4.02808 21.6937 4.93121C21.4406 5.83433 20.5656 8.76871 20.5656 8.76871L21.3563 8.46871L21.5313 8.63746L23.0031 6.37808C23.0031 6.37808 23.5344 6.37496 23.9656 6.58746C24.4344 6.81871 24.7156 7.38746 24.7156 7.38746L28.4969 1.91558C28.4969 1.91558 28.7844 2.17183 29.0375 2.42496C29.2906 2.67808 29.4687 2.85621 29.4812 3.11246C29.4937 3.36558 28.5813 5.04996 28.1594 5.89683C27.7375 6.74371 27.0313 8.43746 27.0313 8.43746L30.1062 6.09058C30.1062 6.09058 31.125 6.23433 31.1562 6.57183C31.1844 6.90933 30.6437 7.53433 30.1062 8.46558C29.5687 9.39683 28.6687 11.2031 28.3562 11.8218C28.0437 12.4406 28.4687 12.4718 28.4687 12.4718L32.1531 10.1437C32.1531 10.1437 32.9469 10.3062 33.0219 10.675C33.1063 11.0968 32.1937 11.9375 31.6 12.6125C31.0062 13.2906 29.7375 14.925 29.0906 16.1968C28.4437 17.4687 28.0094 18.2625 28.0094 18.2625L22.4 23.8281L7.475 22.925L6.20625 17.7062V17.7062Z" fill="url(#paint0_radial_0_1)"/>
<path d="M24.8656 11.5625C24.4906 11.65 23.3062 13.7 22.2 16.8187C21.5344 18.6937 21.0937 20.7437 21.1187 21.725C21.1437 22.7062 22.625 22.4062 22.625 22.4062L23.2531 20.3687C23.2531 20.3687 23.9562 17.9781 24.7875 16.1937C25.7594 14.1 27.0187 12.7687 26.925 12.4469C26.8 12.0156 25.3937 11.4375 24.8656 11.5625V11.5625ZM28.5875 6.23123C28.0625 6.53748 26.8781 8.51873 26.525 9.27498C26.1719 10.0312 26.1594 11.4531 26.5469 11.6375C27.025 11.8625 27.5562 10.2562 28.3625 8.92185C29.1687 7.58748 30.1219 6.0781 30.1219 6.0781C30.1219 6.0781 29.1906 5.8781 28.5875 6.23123ZM30.575 10.1562C29.7719 10.4969 28.275 12.0937 27.7562 12.8969C26.8 14.3812 26.0969 16.0406 25.8437 16.7187C25.5937 17.3969 25.3906 18.3281 26.1719 17.9C26.9531 17.4718 27.9562 15.4594 29.2406 13.65C30.7281 11.55 32.1594 10.1281 32.1594 10.1281C32.1594 10.1281 31.2281 9.8781 30.575 10.1562ZM27.2031 1.19998C26.8937 1.16248 26.0469 3.41248 25.5687 4.49373C25.0906 5.57498 24.4531 7.00623 24.4531 7.00623C24.4531 7.00623 24.0844 9.8531 24.6125 9.9031C25.1406 9.9531 26.175 6.48123 26.9469 4.8906C27.7 3.3406 28.4937 1.90623 28.4937 1.90623C28.4937 1.90623 27.8062 1.27498 27.2031 1.19998V1.19998ZM21.6406 6.83748C21.3625 7.13123 21.5187 8.64373 21.5187 8.64373C21.5187 8.64373 22.6 9.44998 22.8031 9.27185C23.0062 9.09373 23.0156 6.36248 23.0156 6.36248C23.0156 6.36248 22.0937 6.35935 21.6406 6.83748V6.83748ZM19.4062 8.89685C19.0156 9.22498 19.2812 10.7625 19.1812 12.1406C19.0312 14.2031 18.4281 18.4281 18.25 19.6625C18.0719 20.8969 17.8969 22.2531 17.8969 22.2531L19.8344 21.95C19.8344 21.95 20.5875 16.1906 20.8906 13.975C21.1937 11.7594 21.6437 8.61873 21.3437 8.4406C21.0406 8.26873 19.8844 8.49373 19.4062 8.89685V8.89685ZM19.1719 1.54998C18.6781 1.64373 17.6344 4.24998 17.6344 4.24998C17.6344 4.24998 17.5719 6.13123 17.5719 7.03748C17.5719 7.94373 17.3969 9.02498 17.6969 9.02498C17.9969 9.02498 18.5781 7.2906 19.1812 5.78123C19.7844 4.27185 20.7094 1.7406 20.7094 1.7406C20.7094 1.7406 19.8719 1.41873 19.1719 1.54998ZM13.4937 0.596851C13.1531 0.956226 13.6937 1.88123 13.7437 4.41873C13.7937 6.95935 13.4812 10.4531 13.4812 10.4531C13.4812 10.4531 13.75 10.4343 13.9187 10.9562C14.0625 11.3968 14.2969 14.075 14.5969 13.975C14.9 13.875 15.275 12.0875 15.5781 9.06873C15.8812 6.04998 15.7531 3.71248 15.6531 2.75623C15.5531 1.79998 15.2281 0.0687256 15.2281 0.0687256C15.2281 0.0687256 13.9969 0.0687256 13.4937 0.596851V0.596851ZM9.44999 3.2906C9.44999 3.2906 7.99687 3.39373 7.59687 4.17498C7.19374 4.95623 7.32187 5.33435 7.39687 6.08748C7.47187 6.8406 7.70937 8.34373 7.70937 8.34373C7.70937 8.34373 9.04374 10.0031 9.77187 9.59997C10.5 9.19997 9.44999 3.2906 9.44999 3.2906ZM3.60937 5.12185C3.60937 5.12185 2.80312 4.97185 2.32499 5.07185C1.84687 5.17185 1.87187 5.62498 2.09999 5.9281C2.32499 6.23123 3.36562 8.11248 3.36562 8.11248C3.36562 8.11248 3.67499 8.11873 4.07812 8.26873C4.48124 8.41873 5.17187 8.79373 5.14374 8.1906C5.09374 7.13748 3.60937 5.12185 3.60937 5.12185V5.12185ZM5.88124 17C5.88124 17 4.36249 13.9281 3.23124 12.2406C2.09999 10.5531 0.915619 9.24685 0.915619 8.97185C0.915619 8.69373 1.69687 8.41873 2.14687 8.29373C2.59687 8.16873 3.38124 8.1406 3.38124 8.1406C3.38124 8.1406 5.24062 11.2844 5.99687 12.9969C6.75312 14.7094 7.45624 16.7031 7.28124 16.9469C7.12187 17.1656 5.99374 17.0187 5.88124 17V17ZM6.90312 11.5125C6.78437 11.9531 7.35624 13.9531 7.70937 15.3875C8.06249 16.8218 8.49062 18.3312 8.49062 18.3312L9.69687 20.7969L11.0312 20.3187C11.0312 20.3187 10.3281 18.9593 9.92499 17.5531C9.52187 16.1406 8.99999 11.7594 8.46249 11.1875C8.08749 10.7844 6.98124 11.2375 6.90312 11.5125V11.5125ZM11.0812 11.0094C10.7656 11.2156 11.2562 14.5562 11.5094 15.9406C11.7625 17.325 12.2906 18.7844 12.5656 19.4625C12.8437 20.1406 13.6469 21.8531 13.6469 21.8531C13.6469 21.8531 14.4781 22.8344 14.5031 22.7344C14.5281 22.6344 14.8812 21.4 14.8812 21.4C14.8812 21.4 13.7719 18.1281 13.5937 16.7187C13.4187 15.3094 13.1406 11.0344 12.8656 10.8844C12.5906 10.7344 11.5844 10.6844 11.0812 11.0094V11.0094ZM16.6906 11.0844C16.3125 11.4344 15.9375 16.0656 15.7844 17.775C15.6312 19.4844 15.5062 22 15.5062 22L17.1906 21.875C17.1906 21.875 17.8187 15.6625 17.9187 14.8562C18.0187 14.05 18.4719 12.2156 18.2469 11.4844C18.0219 10.7594 17.0156 10.7844 16.6906 11.0844V11.0844Z" fill="#FBDE93"/>
<path d="M5.38125 17.5718C5.275 17.8125 8.55937 35.7843 8.6125 36.0531C8.66562 36.3218 8.55937 36.5656 9.06875 36.8062C9.58125 37.0468 10.3812 37.175 10.8937 37.2312C11.4062 37.2843 14.9344 37.2906 14.9625 36.8625C14.9906 36.4312 25.5375 21.0687 25.5375 21.0687C25.5375 21.0687 27.4812 17.8093 27.3469 17.5406C27.2125 17.2718 26.6875 17.3968 26.1156 17.7875C25.5437 18.1812 25.0156 19.1531 23.4094 20.2312C21.6687 21.4 19.3625 21.6468 17.0437 21.6187C14.9062 21.5906 12.3656 21.2031 10.5469 19.8562C8.94687 18.6687 8.475 17.8125 7.05 17.4343C5.79375 17.1 5.38125 17.5718 5.38125 17.5718V17.5718Z" fill="#FD703F"/>
<path d="M7.86563 18.7469L10.8469 37.2376C10.8469 37.2376 14.4 37.75 17.1688 37.8032C19.9406 37.8563 23.2438 37.2782 23.2438 37.2782L25.6438 29.1657L27.6813 18.4626C27.6813 18.4626 27.1781 17.9594 26.6125 18.3751C26.1781 18.6938 24.8375 20.7688 22.4688 21.6844C19.7969 22.7157 14.9813 22.7907 11.975 21.5219C9.21876 20.3626 8.37813 18.8532 7.86563 18.7469V18.7469Z" fill="#FF2A23"/>
<defs>
<radialGradient id="paint0_radial_0_1" cx="0" cy="0" r="1" gradientUnits="userSpaceOnUse" gradientTransform="translate(17.1834 -3.46004) scale(25.9775 25.9775)">
<stop offset="0.447" stop-color="#FCC216"/>
<stop offset="0.59" stop-color="#FABB16"/>
<stop offset="0.794" stop-color="#F3A814"/>
<stop offset="0.921" stop-color="#ED9913"/>
</radialGradient>
</defs>
</svg>
