<svg width="22" height="30" viewBox="0 0 22 30" fill="none" xmlns="http://www.w3.org/2000/svg">
<path d="M17.9492 0.351562H3.30078C2.52405 0.352435 1.77938 0.661378 1.23014 1.21061C0.680909 1.75985 0.371966 2.50452 0.371094 3.28125V27.6953C0.371675 28.2131 0.577637 28.7096 0.943793 29.0757C1.30995 29.4419 1.8064 29.6479 2.32422 29.6484H18.9258C19.4436 29.6479 19.9401 29.4419 20.3062 29.0757C20.6724 28.7096 20.8783 28.2131 20.8789 27.6953V3.28125C20.878 2.50452 20.5691 1.75985 20.0199 1.21061C19.4706 0.661378 18.726 0.352435 17.9492 0.351562V0.351562ZM18.9258 27.6953H2.32422V14.0234H18.9258V27.6953ZM18.9258 12.0703H2.32422V3.28125C2.32453 3.02234 2.42751 2.77413 2.61059 2.59105C2.79366 2.40798 3.04187 2.30499 3.30078 2.30469H17.9492C18.2081 2.30499 18.4563 2.40798 18.6394 2.59105C18.8225 2.77413 18.9255 3.02234 18.9258 3.28125V12.0703Z" fill="white"/>
<path d="M3.78906 16.4648H5.74219V22.3242H3.78906V16.4648ZM3.78906 5.72266H5.74219V9.62891H3.78906V5.72266Z" fill="white"/>
</svg>
