<svg width="38" height="38" viewBox="0 0 38 38" fill="none" xmlns="http://www.w3.org/2000/svg">
<path d="M36.2541 18.4936C36.7131 27.3885 28.7377 34.8973 19.0984 34.8973C9.45902 34.8973 0.90984 26.9264 1.88525 18.0892C3.2623 5.67093 12.3852 4.8623 19.0984 4.8623C23.1721 4.8623 35.2213 1.2812 36.2541 18.4936Z" fill="#EF4D3C"/>
<path d="M6.99181 15.8366C10.5492 10.2917 16.6312 11.909 18.2377 9.82961C18.2377 13.815 21.1066 11.8512 22.541 13.6417C24.3771 15.9521 25.0656 20.0531 27.2459 20.8617C25.123 16.2987 28.5656 16.472 23.7459 10.3494C26.3279 11.9667 27.6475 10.3494 31.1475 11.7934C28.1066 6.94163 23.3443 8.32786 23.3443 8.32786C23.3443 8.32786 26.3279 5.5554 28.8525 6.99939C26.2131 3.07174 18.582 8.03906 18.582 8.03906C18.582 8.03906 15.4262 2.60967 8.65574 8.32786C12.6148 6.7106 16.9754 8.32786 16.9754 8.32786C16.9754 8.32786 9.80328 6.53732 6.99181 15.8366Z" fill="#8CC63E"/>
<path d="M6.99181 15.8366C6.99181 15.8366 11.1803 8.03909 18.4098 8.7322C12.041 5.78646 6.99181 12.0245 6.99181 15.8366Z" fill="#64892F"/>
<path d="M8.65575 8.32785C8.65575 8.32785 13.9344 4.34244 18.582 8.32785C17.2049 3.47604 10.1475 5.72867 8.65575 8.32785ZM19.7295 8.84768C26.7295 12.0822 24.3771 15.7788 27.2459 20.9772C25.2951 16.6452 30.1148 8.84768 19.7295 8.84768Z" fill="#64892F"/>
<path d="M16.9754 8.32786C16.9754 8.32786 18.582 5.90196 19.1557 2.89846C19.2131 2.49414 20.9344 2.5519 20.8771 2.95622C20.3033 6.82611 21.8525 8.96321 21.8525 8.96321C21.8525 8.96321 20.6475 9.36753 19.1557 9.36753C17.6639 9.42529 16.9754 8.32786 16.9754 8.32786Z" fill="#64892F"/>
<path d="M20.0164 3.24512C20.4917 3.24512 20.8771 3.08996 20.8771 2.89856C20.8771 2.70716 20.4917 2.552 20.0164 2.552C19.5411 2.552 19.1557 2.70716 19.1557 2.89856C19.1557 3.08996 19.5411 3.24512 20.0164 3.24512Z" fill="#8CC63E"/>
</svg>
